# xmcd
#
# Track frame offsets: 
#        150
#        8305
#        14864
#        28075
#        42101
#        54582
#        67795
#        79665
#        89398
#        108244
#        116585
#        133869
#        149309
#        171065
#        185961
#        203672
#        218836
#        230102
#        243616
#        254880
#        265443
#        275808
#        286364
#        299910
#
# Disc length: 4184 seconds
#
# Revision: 0
# Processed by: cddbd v1.5.2PL0 Copyright (c) Steve Scherf et al.
# Submitted via: ExactAudioCopy v0.99pb5
#
DISCID=7d105618
DTITLE=Big Walter Horton - King Of The Harmonica Players
DYEAR=2009
DGENRE=Blues
TTITLE0=Juke
TTITLE1=La Cucaracha - La Paloma
TTITLE2=I Hate To The Sun Go Down
TTITLE3=Goin' Back To St. Louis
TTITLE4=Crawling King Snake
TTITLE5=Ain't It Shame
TTITLE6=She Left Me A Mule To Ride
TTITLE7=That's Wrong Little Mama
TTITLE8=She's Got A Nickel (Telephone Blues)
TTITLE9=Don't Get Around Much Anymore
TTITLE10=Stockyard Blues
TTITLE11=When The Moon Rises High
TTITLE12=Talk About Your Daddy
TTITLE13=Mr. Freddy's Blues
TTITLE14=Hey Little Girl
TTITLE15=Overseas Blues
TTITLE16=Talk A  Little Walk
TTITLE17=Easy
TTITLE18=Evalena
TTITLE19=Have A Good Time
TTITLE20=Need My Baby
TTITLE21=It's You Baby
TTITLE22=Highway 61
TTITLE23=Back Home To Mama
EXTD=
EXTT0=
EXTT1=
EXTT2=
EXTT3=
EXTT4=
EXTT5=
EXTT6=
EXTT7=
EXTT8=
EXTT9=
EXTT10=
EXTT11=
EXTT12=
EXTT13=
EXTT14=
EXTT15=
EXTT16=
EXTT17=
EXTT18=
EXTT19=
EXTT20=
EXTT21=
EXTT22=
EXTT23=
PLAYORDER=
